<?xml version="1.0" encoding="UTF-8"?>
<svg xmlns="http://www.w3.org/2000/svg" version="1.1" viewBox="0 0 416.1 102.5">
  <defs>
    <style>
      .cls-1 {
        fill: #082159;
      }
    </style>
  </defs>
  <!-- Generator: Adobe Illustrator 28.7.1, SVG Export Plug-In . SVG Version: 1.2.0 Build 142)  -->
  <g>
    <g id="Layer_1">
      <path class="cls-1" d="M25.4,36.3l6.4,21.4h-13.9l7.5-21.4ZM27.9,0L0,74.6l10.6.2,2.6-5.9h21.4l2,5.9,38.5-.2L48.6,0h-20.7Z"/>
      <path class="cls-1" d="M321.5,17.7v23.6c0,9.2-12,7.5-12,7.5V11c12.6.1,12,6.7,12,6.7M356,31.6c0-33.8-31.2-31.3-31.2-31.3h-25.8v74.4h10.5v-14.8s2.5.3,6.4.3l5.3,14.7h35.4l-9.9-23c5.5-4.2,9.3-10.6,9.3-20.3"/>
      <polygon class="cls-1" points="253.9 .4 253.9 .4 238.7 .4 238.7 74.6 253.9 74.6 253.9 74.6 293.8 74.6 293.8 61.9 276 61.9 276 43 293.8 43 293.8 30.3 276 30.3 276 12.9 293.8 12.9 293.8 .4 253.9 .4"/>
      <polygon class="cls-1" points="398.4 .4 376.2 .4 361 .4 361 74.6 376.2 74.6 376.2 74.6 416.1 74.6 416.1 61.9 398.4 61.9 398.4 43 416.1 43 416.1 30.3 398.4 30.3 398.4 13.2 416.1 13.2 416.1 .4 398.4 .4"/>
      <g>
        <path class="cls-1" d="M213.2,1.2h-.1.1M213,1.2c-.2,0-.4-.1-.6-.1.2,0,.4.1.6.1M212.2,1.1h-.3c.2-.1.3,0,.3,0M211.8,1c-.1,0-.3,0-.4-.1,0,.1.3.1.4.1M211.3.9c-.1,0-.3,0-.4-.1,0,.1.3.1.4.1M210.8.8c-.3-.1-.7-.1-1.1-.2.4,0,.7.2,1.1.2M209.6.7c-.2,0-.3,0-.5-.1.1,0,.3,0,.5.1M209,.6c-.2,0-.3,0-.5-.1.2,0,.3,0,.5.1M208.4.5c-.1,0-.3,0-.4-.1.1.1.2.1.4.1M207.8.4h-.4.4M207.2.4h-.4c0-.1.2-.1.4,0M213.4,1.3s0,0,0,0c0,0,0,0,0,0M200.3,17.7v23.6c0,9.2-12,7.5-12,7.5V11c12.6.1,12,6.7,12,6.7M234.8,31.6c0-9.9-2.7-16.7-6.5-21.4-4-4.9-9.2-7.4-13.8-8.7-.3-.1-.7-.2-1-.3h0c-2.9-.7-5.5-.9-7.3-1h.5-.5c-1.6-.1-2.5,0-2.5,0h-25.8v74.4h10.5v-14.8c-.1,0,46.4,5.6,46.4-28.2"/>
        <path class="cls-1" d="M166.3,10.2h0c-4-4.9-9.2-7.4-13.8-8.7-.6-.2-.9-.3-1-.3-2.4-.6-4.6-.9-6.4-1h-66.1v74.7h36.6V14.8h0v-.4c.1-1,.5-2.5,1.6-3.5.5-.4,1-.7,1.6-1h.2c.2-.1.3-.1.5-.1.7-.2,1.3-.2,1.8-.1.6.1,1.1.2,1.5.4h.1l.3.3h.1c.2.1.4.3.5.4h0c.2.2.4.4.5.6h0c.5.7.8,1.6.9,2.8v.4h0v60.3h10.1V14.5c.1-.8.3-1.4.5-2h0c.1-.3.2-.5.3-.7,0-.1.1-.1.1-.2.1-.1.1-.2.2-.3.1-.1.2-.3.4-.4l.3-.3c.1-.1.2-.1.2-.2.1-.1.2-.1.2-.1h0c.3-.2.6-.3.9-.4.6-.2,1.2-.3,1.7-.3h.4c.6.1,1.2.2,1.8.4.2.1.4.2.5.3.3.2.6.4.8.7.3.4.5.8.7,1.3-.2-.3-.3-.6-.5-.8.3.4.6.9.8,1.5.1.5.2,1,.3,1.5v.3h0v2.3h0v57.7h27.6V27.7h0v-.3c.3.2-.1-10-6.2-17.2"/>
        <path class="cls-1" d="M332.9,92.9l-3,7.4-3-7.4h-1.6v9.5h1.1v-7.9l2.9,7.1h1.2l2.9-7.1v7.9h1.1v-9.5h-1.6ZM315.2,101.4c-.7,0-1.3-.2-1.8-.5s-.8-.8-1.1-1.4c-.2-.6-.3-1.2-.3-1.9s.1-1.4.3-1.9c.2-.6.6-1,1.1-1.4.5-.3,1.1-.5,1.8-.5s1.3.2,1.8.5.8.8,1.1,1.4c.2.6.3,1.2.3,1.9s-.1,1.4-.3,1.9c-.2.6-.6,1-1.1,1.4s-1.1.5-1.8.5M315.2,102.5c1,0,1.8-.2,2.5-.7s1.2-1,1.5-1.8c.3-.7.5-1.6.5-2.4s-.2-1.7-.5-2.4c-.3-.7-.8-1.3-1.5-1.8-.7-.4-1.5-.7-2.5-.7s-1.8.2-2.5.7c-.7.4-1.2,1-1.5,1.8-.3.7-.5,1.6-.5,2.4s.2,1.7.5,2.4c.3.7.8,1.3,1.5,1.8.7.5,1.5.7,2.5.7M301.2,101.4c-.7,0-1.3-.2-1.8-.5s-.8-.8-1.1-1.4-.3-1.2-.3-1.9.1-1.4.3-1.9c.2-.6.6-1,1.1-1.4.5-.3,1.1-.5,1.8-.5s1.3.2,1.8.5.8.8,1.1,1.4c.2.6.3,1.2.3,1.9s-.1,1.4-.3,1.9c-.2.6-.6,1-1.1,1.4-.4.4-1,.5-1.8.5M301.2,102.5c1,0,1.8-.2,2.5-.7.7-.4,1.2-1,1.5-1.8.3-.7.5-1.6.5-2.4s-.2-1.7-.5-2.4c-.3-.7-.8-1.3-1.5-1.8-.7-.4-1.5-.7-2.5-.7s-1.8.2-2.5.7c-.7.4-1.2,1-1.5,1.8-.3.7-.5,1.6-.5,2.4s.2,1.7.5,2.4c.3.7.8,1.3,1.5,1.8.7.5,1.6.7,2.5.7M286.7,97.2v-3.3h1.6c.6,0,1.1.1,1.5.4s.5.7.5,1.2-.2.9-.5,1.2c-.3.3-.8.4-1.4.4h-1.7ZM285.5,102.4h1.2v-4.2h1.7l2.4,4.2h1.4l-2.6-4.4c.6-.2,1.1-.5,1.4-.9.4-.4.5-1,.5-1.6s-.1-1-.4-1.5c-.3-.4-.7-.7-1.1-.9-.5-.2-1-.3-1.6-.3h-2.8v9.6h-.1ZM275.8,102.4h1.2v-8.5h3.2v-1.1h-7.6v1.1h3.2v8.5ZM265,102.5c.6,0,1.1-.1,1.6-.3.5-.2.9-.6,1.1-1,.3-.4.4-.9.4-1.4s-.1-1-.4-1.3c-.3-.4-.6-.6-.9-.8-.4-.2-.8-.4-1.4-.6-.5-.2-.8-.3-1.1-.5-.3-.1-.5-.3-.7-.5s-.3-.5-.3-.8.1-.5.2-.7.3-.4.6-.5c.2-.1.5-.2.8-.2.8,0,1.4.4,1.8,1.1l1-.6c-.3-.5-.7-.9-1.2-1.2-.5-.3-1-.4-1.6-.4s-1,.1-1.4.3c-.4.2-.8.5-1,.9s-.4.8-.4,1.3.1.9.4,1.2c.2.3.5.6.9.8.3.2.8.4,1.4.6.5.2.9.4,1.2.5.3.1.5.3.7.6.2.2.3.5.3.9s-.1.6-.2.8c-.2.2-.4.4-.7.6-.3.1-.6.2-1,.2-.6,0-1.1-.2-1.5-.5s-.7-.8-.7-1.4l-1.2.3c.1.6.3,1,.6,1.5.3.4.7.7,1.2.9.4.1,1,.2,1.5.2M244.7,97.2v-3.3h1.6c.6,0,1.1.1,1.5.4s.5.7.5,1.2-.2.9-.5,1.2c-.3.3-.8.4-1.4.4h-1.7ZM243.5,102.4h1.2v-4.2h1.7l2.4,4.2h1.4l-2.6-4.4c.6-.2,1.1-.5,1.4-.9.4-.4.5-1,.5-1.6s-.1-1-.4-1.5c-.3-.4-.7-.7-1.1-.9-.5-.2-1-.3-1.6-.3h-2.8v9.6h-.1ZM231.5,102.4h6.3v-1.1h-5.1v-3.1h4.6v-1.1h-4.6v-3.1h5.1v-1.1h-6.3v9.5ZM219.5,101.3v-7.3h1.4c1.3,0,2.2.3,2.8.9.6.6.9,1.5.9,2.8s-.3,2.2-1,2.8c-.7.6-1.6.9-2.8.9h-1.3ZM218.3,102.4h2.6c1,0,1.9-.2,2.7-.6.7-.4,1.3-.9,1.7-1.6.4-.7.6-1.5.6-2.5s-.2-1.9-.6-2.6-.9-1.3-1.6-1.6c-.7-.4-1.6-.6-2.7-.6h-2.6v9.5h-.1ZM210.8,92.9v7.6l-4.5-7.6h-1.2v9.5h1.1v-7.6l4.5,7.6h1.2v-9.5h-1.1ZM194.9,101.4c-.7,0-1.3-.2-1.8-.5s-.8-.8-1.1-1.4c-.2-.6-.3-1.2-.3-1.9s.1-1.4.3-1.9c.2-.6.6-1,1.1-1.4.5-.3,1.1-.5,1.8-.5s1.3.2,1.8.5.8.8,1.1,1.4c.2.6.3,1.2.3,1.9s-.1,1.4-.3,1.9c-.2.6-.6,1-1.1,1.4-.4.4-1,.5-1.8.5M194.9,102.5c1,0,1.8-.2,2.5-.7.7-.4,1.2-1,1.5-1.8.3-.7.5-1.6.5-2.4s-.2-1.7-.5-2.4-.8-1.3-1.5-1.8c-.7-.4-1.5-.7-2.5-.7s-1.8.2-2.5.7c-.7.4-1.2,1-1.5,1.8s-.5,1.6-.5,2.4.2,1.7.5,2.4c.3.7.8,1.3,1.5,1.8.8.5,1.6.7,2.5.7M175.6,102.5c.6,0,1.1-.1,1.6-.3.5-.2.9-.6,1.1-1,.3-.4.4-.9.4-1.4s-.1-1-.4-1.3-.6-.6-.9-.8c-.4-.2-.8-.4-1.4-.6-.5-.2-.8-.3-1.1-.5-.3-.1-.5-.3-.7-.5s-.3-.5-.3-.8.1-.5.2-.7.3-.4.6-.5c.2-.1.5-.2.8-.2.8,0,1.4.4,1.8,1.1l1-.6c-.3-.5-.7-.9-1.2-1.2-.5-.3-1-.4-1.6-.4s-1,.1-1.4.3c-.4.2-.8.5-1,.9s-.4.8-.4,1.3.1.9.4,1.2c.2.3.5.6.9.8.3.2.8.4,1.4.6.5.2.9.4,1.2.5s.5.3.7.6c.2.2.3.5.3.9s-.1.6-.2.8c-.2.2-.4.4-.7.6-.3.1-.6.2-1,.2-.6,0-1.1-.2-1.5-.5s-.7-.8-.7-1.4l-1.2.3c.1.6.3,1,.6,1.5.3.4.7.7,1.2.9.4.1.9.2,1.5.2M165.5,102.4h1.2v-9.5h-1.2v9.5ZM155.8,102.5c1.2,0,2-.3,2.6-1s.9-1.6.9-2.8v-5.8h-1.2v5.7c0,.9-.2,1.6-.5,2.1-.4.5-.9.7-1.8.7s-1.4-.2-1.8-.7c-.4-.5-.5-1.1-.5-2v-5.8h-1.2v5.9c0,1.2.3,2.1.9,2.8.6.6,1.5.9,2.6.9M139.1,102.4h1.2v-4.2h4.7v4.2h1.2v-9.5h-1.2v4.2h-4.7v-4.2h-1.2v9.5ZM125.8,102.4h1.2v-2.6l2.2-2.3,3.2,4.9h1.5l-3.8-5.7,3.7-3.8h-1.6l-5.2,5.5v-5.5h-1.2v9.5h0ZM114.9,97.2v-3.3h1.6c.6,0,1.1.1,1.5.4s.5.7.5,1.2-.2.9-.5,1.2c-.3.3-.8.4-1.4.4h-1.7ZM113.7,102.4h1.2v-4.2h1.7l2.4,4.2h1.4l-2.6-4.4c.6-.2,1.1-.5,1.4-.9.4-.4.5-1,.5-1.6s-.1-1-.4-1.5c-.3-.4-.7-.7-1.1-.9-.5-.2-1-.3-1.6-.3h-2.8v9.6h0ZM101.7,102.4h6.3v-1.1h-5.1v-3.1h4.6v-1.1h-4.6v-3.1h5.1v-1.1h-6.3v9.5ZM86.6,102.4h1.2l2.3-7.1,2.3,7.1h1.2l2.8-9.5h-1.2l-2.2,7.8-2.4-7.3h-1l-2.4,7.3-2.2-7.8h-1.2l2.8,9.5Z"/>
      </g>
    </g>
  </g>
</svg>